<svg xmlns="http://www.w3.org/2000/svg" data-name="Layer 2" id="Layer_2" viewBox="0 0 339.22 339.22">
  <defs>
    <style>      .cls-1 {        fill: #f8cd8d;      }      .cls-2 {        fill: #a88a61;      }      .cls-3 {        fill: #113f61;      }    </style>
  </defs>
  <g data-name="Layer 2" id="Layer_2-2">
    <g data-name="Layer 1-2" id="Layer_1-2">
      <circle class="cls-3" cx="169.61" cy="169.61" r="169.61"/>
      <path class="cls-1" d="m154.33,273.87c-2.52,0-4.56-2.04-4.56-4.56v-40.57c-.26-1.11-1.41-5.02-4.56-5.02-4.44,0-5.75,3.7-6.08,5.04v40.55c0,2.52-2.04,4.56-4.56,4.56s-4.56-2.04-4.56-4.56v-41.03c0-.25.02-.5.06-.75.74-4.47,4.87-12.93,15.13-12.93,9.06,0,12.87,8.46,13.61,12.93.04.25.06.5.06.75v41.03c0,2.52-2.04,4.56-4.56,4.56h.02Z"/>
      <path class="cls-1" d="m155.88,264.75h-22.79c-2.52,0-4.56-2.04-4.56-4.56s2.04-4.56,4.56-4.56h22.79c2.52,0,4.56,2.04,4.56,4.56s-2.04,4.56-4.56,4.56Z"/>
      <g>
        <path class="cls-1" d="m275.9,273.87h-12.16c-4.42,0-9.12-3.2-9.12-9.12v-45.59c0-2.52,2.04-4.56,4.56-4.56h10.64c.37,0,.74.05,1.11.14,3.54.89,9.53,4.09,9.53,10.5v19.75c0,4.42-3.2,9.12-9.12,9.12h-7.6v10.62s.09.02.13.02h12.03c2.52,0,4.56,2.04,4.56,4.56s-2.04,4.56-4.56,4.56Zm-12.16-28.87h7.58s.02-.09.02-.13v-19.63c0-.37-1.13-1.12-2.21-1.52h-5.39v21.27h0Z"/>
        <path class="cls-1" d="m183.21,273.87h-10.64c-7.6,0-7.6-7.61-7.6-12.16v-37.99c0-5.92,4.7-9.12,9.12-9.12h13.68c2.52,0,4.56,2.04,4.56,4.56s-2.04,4.56-4.56,4.56h-13.68v37.99c0,.96,0,2.14.05,3.04h9.07v-13.68c0-.45,0-1.01-.02-1.52h-1.5c-2.52,0-4.56-2.04-4.56-4.56s2.04-4.56,4.56-4.56h3.04c7.6,0,7.6,8.01,7.6,10.64v15.2c0,4.99-4.59,7.6-9.12,7.6h0Z"/>
        <path class="cls-1" d="m202.96,273.87c-2.52,0-4.56-2.04-4.56-4.56v-50.15c0-2.52,2.04-4.56,4.56-4.56s4.56,2.04,4.56,4.56v50.15c0,2.52-2.04,4.56-4.56,4.56Z"/>
        <path class="cls-1" d="m221.2,273.87c-2.52,0-4.56-2.04-4.56-4.56v-51.67c0-2.52,2.04-4.56,4.56-4.56s4.56,2.04,4.56,4.56v51.67c0,2.52-2.04,4.56-4.56,4.56Z"/>
        <path class="cls-1" d="m240.95,273.87c-2.52,0-4.56-2.04-4.56-4.56v-42.55c0-1.49-.1-2.38-.19-2.86-.05-.04-.14-.11-.22-.17-.33.14-1.01.48-1.81.88-.7.52-1.29,1.24-1.68,1.78-1.14,1.59-1.9,3.49-2.23,5.64-.39,2.49-2.73,4.19-5.21,3.8-2.49-.39-4.19-2.72-3.8-5.21.56-3.58,1.85-6.79,3.84-9.55,1.25-1.73,2.66-3.13,4.2-4.17l.5-.29c3.23-1.62,4-2,6.6-2,2.27,0,4.17,1.13,5.3,2.01,2.04.99,3.82,3.7,3.82,10.15v42.55c0,2.52-2.04,4.56-4.56,4.56h0Z"/>
        <path class="cls-1" d="m113.31,273.87c-2.52,0-4.56-2.04-4.56-4.56v-42.55c0-1.49-.1-2.38-.19-2.86-.05-.04-.14-.11-.22-.17-.33.14-1.01.48-1.81.88-.7.52-1.29,1.24-1.68,1.78-1.14,1.59-1.9,3.49-2.23,5.64-.39,2.49-2.72,4.19-5.21,3.8s-4.19-2.72-3.8-5.21c.56-3.58,1.85-6.79,3.84-9.55,1.25-1.73,2.66-3.13,4.2-4.17l.5-.29c3.23-1.62,4-2,6.6-2,2.27,0,4.17,1.13,5.3,2.01,2.04.99,3.82,3.7,3.82,10.15v42.55c0,2.52-2.04,4.56-4.56,4.56h0Z"/>
        <path class="cls-1" d="m95.07,273.87c-2.52,0-4.56-2.04-4.56-4.56v-42.55c0-1.49-.1-2.38-.19-2.86-.05-.04-.14-.11-.22-.17-.33.14-1.01.48-1.81.88-.7.52-1.29,1.24-1.68,1.78-1.14,1.59-1.9,3.49-2.23,5.64-.39,2.49-2.72,4.19-5.21,3.8s-4.19-2.72-3.8-5.21c.56-3.58,1.85-6.79,3.84-9.55,1.25-1.73,2.66-3.13,4.2-4.17l.5-.29c3.23-1.62,4-2,6.6-2,2.27,0,4.17,1.13,5.3,2.01,2.04.99,3.82,3.7,3.82,10.15v42.55c0,2.52-2.04,4.56-4.56,4.56h0Z"/>
        <path class="cls-1" d="m76.84,275.39c-2.52,0-4.56-2.04-4.56-4.56v-51.67c0-2.52,2.04-4.56,4.56-4.56s4.56,2.04,4.56,4.56v51.67c0,2.52-2.04,4.56-4.56,4.56Z"/>
        <path class="cls-1" d="m58.6,275.39c-2.52,0-4.56-2.04-4.56-4.56v-50.15c0-2.52,2.04-4.56,4.56-4.56s4.56,2.04,4.56,4.56v50.15c0,2.52-2.04,4.56-4.56,4.56Z"/>
      </g>
      <path class="cls-1" d="m198.4,293.62h-72.94c-2.52,0-4.56-2.04-4.56-4.56s2.04-4.56,4.56-4.56h72.94c2.52,0,4.56,2.04,4.56,4.56s-2.04,4.56-4.56,4.56Z"/>
      <g>
        <path class="cls-2" d="m201.55,204.33c-10.1,0-18.31-4.16-24.1-7.09-1.02-.52-1.98-1-2.87-1.42-4-1.87-5.73-6.64-3.85-10.64s6.64-5.73,10.64-3.85c1.03.48,2.13,1.04,3.31,1.64,6.02,3.05,12.85,6.51,20.79,4.99,3.5-.67,4.84-1.72,5.63-4.55.14-1.55-.29-2.07-.49-2.3-1.47-1.73-5.88-2.76-8.51-2.83h-.12c-1.42-.05-14.04-.74-20.9-8.94-3.44-4.11-4.84-9.31-4.03-15.03l.05-.29c3.06-17.07,19.07-16.92,25.11-16.87h1.2c8.62,0,17.87,4.71,20.71,6.52,3.72,2.38,4.81,7.33,2.43,11.05s-7.33,4.81-11.05,2.43c-2.18-1.4-8.26-4-12.09-4h-1.34c-7.96-.06-8.69.85-9.19,3.53-.2,1.58.23,2.1.46,2.38,1.56,1.89,6.33,3.08,9.21,3.23,1.92.05,13.58.67,20.2,8.41,2.46,2.88,5.18,7.87,4.15,15.31l-.15.81c-2.29,9.31-8.44,14.98-18.26,16.86-2.4.46-4.71.66-6.93.66h-.01Z"/>
        <path class="cls-2" d="m52.54,204.33c-6.45,0-12.83-1.94-17.86-7.1-9.15-9.38-6.97-23.27-6.09-27.3.95-4.32,5.21-7.05,9.53-6.1s7.05,5.21,6.1,9.53c-.71,3.26-1.11,9.6,1.91,12.7,4.42,4.53,15.74,1.3,21.6-2.91,6.03-4.33,8.34-10.94,9.1-13.11,6.58-18.76,22.13-57.95,43.67-112.12-18.26,6.35-24.96,8.63-45.24,13.5-4.3,1.03-8.61-1.62-9.65-5.91-1.03-4.3,1.62-8.62,5.91-9.65,20.02-4.8,26.35-7.01,45.13-13.54,4.3-1.5,9.25-3.22,15.14-5.24,2.96-1.02,6.23-.22,8.39,2.04,2.16,2.26,2.8,5.57,1.64,8.48l-3.19,8.03c-23.17,58.24-39.91,100.32-46.69,119.66-3.16,9.02-8.17,16.03-14.88,20.85-5.83,4.19-15.26,8.19-24.53,8.19h.01Z"/>
        <path class="cls-2" d="m131.48,202.82c-1.11,0-2.25-.09-3.42-.29-5.1-.87-18.66-3.17-18.66-17.89,0-5.84,3.36-14.37,8.91-27.73,2-4.83,4.07-9.82,5.56-13.97,1.49-4.16,6.07-6.32,10.23-4.83,4.16,1.49,6.32,6.07,4.83,10.23-1.62,4.52-3.77,9.69-5.84,14.7-3.06,7.37-7.67,18.5-7.69,21.6,0,.34.02.58.05.72.48.28,1.78.79,5.29,1.39,2.47.42,5.38-1.55,6.26-2.32.75-.93,6.11-8.32,15.76-39.65,1.3-4.22,5.78-6.59,10-5.29s6.59,5.78,5.29,10c-5.64,18.3-13.65,40.95-20.3,46.79-1.25,1.13-7.67,6.53-16.27,6.53h0Zm-5.99-17.24h.01-.01Z"/>
        <path class="cls-2" d="m265.61,204.96c-1.6,0-3.2-.15-4.78-.47l-.66-.13c-6.59-1.3-9.07-2.54-14.02-8.72l-.7-.88-.43-1.04c-4.07-9.76.49-19.99,7.39-35.48,5.16-11.58,11.58-26,17.3-45.81,1.23-4.24,5.66-6.69,9.91-5.47,4.24,1.23,6.69,5.66,5.47,9.91-6.03,20.88-12.98,36.48-18.06,47.88-4.32,9.69-8.09,18.15-7.46,22.02.73.87,1.09,1.22,1.25,1.35.41.14,1.5.35,2.46.54l.69.14c4.13.83,8.81-1.46,11.93-5.81,2.57-3.59,7.57-4.42,11.16-1.84,3.59,2.57,4.42,7.57,1.84,11.16-5.73,8-14.5,12.65-23.29,12.66h0Z"/>
        <path class="cls-2" d="m247.4,155.65c-4.33,0-7.88-3.45-7.99-7.8-.11-4.42,3.38-8.09,7.8-8.2l40-1c4.37-.1,8.09,3.38,8.2,7.8.11,4.42-3.38,8.09-7.8,8.2l-40,1h-.21Z"/>
      </g>
      <g>
        <path class="cls-1" d="m50.56,199.71c-6.45,0-12.83-1.94-17.86-7.1-9.15-9.38-6.97-23.27-6.09-27.3.95-4.32,5.21-7.04,9.53-6.1,4.32.95,7.05,5.21,6.1,9.53-.71,3.26-1.11,9.6,1.91,12.7,4.41,4.53,15.74,1.3,21.6-2.91,6.03-4.33,8.34-10.94,9.1-13.11,6.58-18.76,22.13-57.95,43.67-112.12-18.26,6.35-24.96,8.63-45.24,13.5-4.3,1.03-8.61-1.62-9.65-5.91-1.03-4.3,1.62-8.62,5.91-9.65,20.02-4.8,26.35-7.01,45.13-13.54,4.3-1.5,9.25-3.22,15.14-5.24,2.96-1.02,6.23-.22,8.39,2.04,2.16,2.26,2.8,5.57,1.64,8.48l-3.19,8.03c-23.17,58.24-39.91,100.32-46.69,119.66-3.16,9.02-8.17,16.03-14.88,20.85-5.83,4.19-15.26,8.19-24.53,8.19h.01Z"/>
        <path class="cls-1" d="m128.44,200.8c-1.49,0-3.08-.12-4.76-.38l-.86-.18c-9.64-2.63-15.4-10.19-15.4-20.22,0-5.84,3.36-14.37,8.91-27.73,2-4.83,4.07-9.82,5.56-13.97,1.49-4.16,6.07-6.32,10.23-4.83,4.16,1.49,6.32,6.07,4.83,10.23-1.62,4.52-3.77,9.69-5.84,14.7-3.06,7.37-7.67,18.5-7.69,21.6,0,2.62.88,3.92,3.2,4.66,4.29.55,6.65-.98,7.23-1.42l.81-.94.16-.05c1.66-2.26,7.33-11.54,15.9-41.93,1.2-4.25,5.62-6.73,9.87-5.53s6.73,5.62,5.53,9.87c-5.6,19.82-13.76,44.15-21.55,50.45-1.72,1.51-7.24,5.66-16.13,5.66h0Z"/>
        <path class="cls-1" d="m200,199.77c-10.1,0-18.31-4.16-24.1-7.09-1.02-.52-1.98-1-2.87-1.42-4-1.87-5.73-6.64-3.85-10.64,1.87-4,6.63-5.73,10.64-3.85,1.03.48,2.13,1.04,3.31,1.64,6.02,3.05,12.85,6.51,20.79,4.99,3.51-.67,4.84-1.72,5.63-4.55.14-1.56-.3-2.08-.5-2.31-1.55-1.81-6.25-2.78-8.45-2.82h-.16c-1.42-.06-14.04-.74-20.9-8.94-3.44-4.11-4.84-9.31-4.03-15.03l.05-.29c3.06-17.07,19.07-16.93,25.11-16.87h1.2c8.62,0,17.87,4.71,20.71,6.52,3.72,2.38,4.81,7.33,2.43,11.05s-7.33,4.81-11.05,2.43c-2.18-1.4-8.26-4-12.09-4h-1.34c-7.96-.06-8.69.85-9.19,3.53-.2,1.59.24,2.11.47,2.39,1.73,2.06,6.87,3.12,9.16,3.22,1.81.04,13.58.62,20.24,8.41,2.46,2.88,5.19,7.87,4.15,15.31l-.15.81c-2.29,9.31-8.44,14.98-18.26,16.86-2.4.46-4.71.66-6.93.66h-.02Z"/>
        <path class="cls-1" d="m263.64,200.34c-1.6,0-3.2-.15-4.78-.47l-.66-.13c-6.59-1.3-9.07-2.54-14.02-8.72l-.7-.88-.43-1.04c-4.07-9.76.49-19.99,7.39-35.48,5.16-11.58,11.58-26,17.3-45.81,1.23-4.24,5.66-6.69,9.91-5.47,4.24,1.23,6.69,5.66,5.47,9.91-6.03,20.88-12.98,36.48-18.06,47.88-4.32,9.69-8.09,18.15-7.46,22.02.73.87,1.09,1.22,1.25,1.35.41.14,1.5.35,2.46.54l.69.14c4.12.82,8.81-1.46,11.93-5.81,2.57-3.59,7.57-4.42,11.16-1.84,3.59,2.57,4.42,7.57,1.84,11.16-5.73,8-14.5,12.65-23.29,12.66h0Z"/>
        <path class="cls-1" d="m245.42,151.02c-4.33,0-7.88-3.45-7.99-7.8-.11-4.42,3.38-8.09,7.8-8.2l40-1c4.39-.12,8.09,3.38,8.2,7.8.11,4.42-3.38,8.09-7.8,8.2l-40,1h-.21Z"/>
      </g>
    </g>
  </g>
</svg>
